<?xml version="1.0" encoding="utf-8"?>
<!-- Generator: Adobe Illustrator 21.0.0, SVG Export Plug-In . SVG Version: 6.00 Build 0)  -->
<svg version="1.1" id="Layer_1" xmlns="http://www.w3.org/2000/svg" xmlns:xlink="http://www.w3.org/1999/xlink" x="0px" y="0px"
	 viewBox="0 0 326.7 167.3" style="enable-background:new 0 0 326.7 167.3;" xml:space="preserve">
<style type="text/css">
	.st0{fill:#FFFFFF;}
	.st1{fill:#CFCFCF;}
</style>
<g>
	<g>
		<path class="st0" d="M58.3,71.8c2.9-0.4,3.6-2,3.8-4.6c0.2-2.6,0.3-9.6,0.2-14c-0.1-4.4-1.8-28.3-1.9-33.2c-0.1-5-0.6-12-7.3-11.8
			c-6.7,0.2-6,8.3-5.9,11.1c0.2,2.8,2.5,25.8,2.8,30.1c0.4,4.3,2.2,18.4,3,20C53.8,70.6,55.3,72.1,58.3,71.8L58.3,71.8z"/>
		<path class="st0" d="M41.2,74.7c2.8-0.6,3.2-2.9,3-5.5c-0.2-2.6-1.2-9.2-2-13.5c-0.8-4.4-4.6-23.4-5.5-28.3
			c-0.9-4.9-2.5-11.8-9.1-10.5c-6.6,1.3-4.7,9.1-4,11.8c0.6,2.7,4.9,20.9,5.9,25.1c1,4.2,5.2,18.2,6.2,19.3
			C36.6,74.3,38.3,75.3,41.2,74.7L41.2,74.7z"/>
		<path class="st0" d="M73.5,73.2c2.6,0.4,3.6-1.5,4.2-3.7c0.7-2.3,1.8-8.1,2.5-12c0.7-3.9,3.7-25.9,4.5-30.3
			c0.7-4.4,1.5-10.7-4.5-11.7c-6-1-6.8,6.3-7.1,8.8c-0.3,2.5-2.7,23.9-3.1,27.7c-0.4,3.9-1.2,17-0.7,18.2
			C69.8,71.4,70.9,72.8,73.5,73.2L73.5,73.2z"/>
		<path class="st0" d="M88.7,77.7c2.2,0.7,3.4-0.8,4.3-2.7c0.9-1.9,2.8-6.9,4-10.3c1.2-3.4,4.5-16.5,5.8-20.3
			c1.3-3.8,2.9-9.3-2.3-11.1c-5.1-1.7-6.9,4.6-7.6,6.8c-0.6,2.2-3.3,14.8-4.3,18.2c-0.9,3.4-3.5,14.9-3.3,16.1
			C85.7,75.5,86.4,76.9,88.7,77.7L88.7,77.7z"/>
		<path class="st0" d="M58.3,71.8c2.9-0.4,3.6-2,3.8-4.6c0.2-2.6,0.2-13.3,0.2-17.8c-0.1-4.4-1.8-24.5-1.9-29.5
			c-0.1-5-0.6-12-7.3-11.8c-6.7,0.2-6,8.3-5.9,11.1c0.2,2.8,2.5,25.8,2.8,30.1c0.4,4.3,2.2,18.4,3,20C53.8,70.6,55.3,72.1,58.3,71.8
			L58.3,71.8z"/>
		<g>
			<g>
				<path class="st0" d="M64.5,132.7c23.2-0.5,35.3-14.3,35-30.8C99,80.1,76.7,76.1,61.8,76.4c-19.2,0.4-28.4,8.1-31.2,12
					c-2.2,3.1,0.3,6.6,2.6,7.1c2.3,0.5,3.1-0.6,5.7-2.9c2.5-2.2,3.9-3.1,7.6-4.1c2-0.6,1.6,1,1,2.3c-1.4,3-2.2,9.5,1.5,15.7
					c3.2,5.4,9.1,8.2,15.5,7.8c6.6-0.3,10.1-3.7,12.6-7.2c2.8-3.8,4.9-12.6-0.1-16.2c-1.2-0.8-2.8-0.6-3.2,0.2
					c-0.3,0.5-0.3,0.9-0.1,1.4c0.1,0.2,0.1,0.4,0.2,0.6c0.5,2.1-1.3,3.5-3,3.6c-2.4,0.1-3.6-1.6-3.9-2.8c-0.3-1.3,0-3.5,1.8-4.9
					c1.9-1.4,4.9-2,8.4-1.3c20,4.1,15,34.6-13.5,34.5c-20.4-0.1-37.4-6.4-37.8-26.9c-0.1-6-0.1-18.8-1.4-25.7
					c-0.9-4.9-5.1-8.9-11.3-8.6c-0.8,0-1.5,0.7-1.3,1.5c0.3,1.4,1.2,6.6,1.4,9.9c0.2,5.2,0.6,9.5,0.9,24.2
					C14.8,112.8,23.6,133.5,64.5,132.7z"/>
			</g>
			<g>
				<path class="st0" d="M64.5,132.7c23.2-0.5,35.3-14.3,35-30.8C99,80.1,76.7,76.1,61.8,76.4c-19.2,0.4-28.4,8.1-31.2,12
					c-2.2,3.1,0.3,6.6,2.6,7.1c2.3,0.5,3.1-0.6,5.7-2.9c2.5-2.2,3.9-3.1,7.6-4.1c2-0.6,1.6,1,1,2.3c-1.4,3-2.2,9.5,1.5,15.7
					c3.2,5.4,9.1,8.2,15.5,7.8c6.6-0.3,10.1-3.7,12.6-7.2c2.8-3.8,4.9-12.6-0.1-16.2c-1.2-0.8-2.8-0.6-3.2,0.2
					c-0.3,0.5-0.3,0.9-0.1,1.4c0.1,0.2,0.1,0.4,0.2,0.6c0.5,2.1-1.3,3.5-3,3.6c-2.4,0.1-3.6-1.6-3.9-2.8c-0.3-1.3,0-3.5,1.8-4.9
					c1.9-1.4,4.9-2,8.4-1.3c20,4.1,15,34.6-13.5,34.5c-20.4-0.1-37.4-6.4-37.8-26.9c-0.1-6-0.1-18.8-1.4-25.7
					c-0.9-4.9-5.1-8.9-11.3-8.6c-0.8,0-1.5,0.7-1.3,1.5c0.3,1.4,1.2,6.6,1.4,9.9c0.2,5.2,0.6,9.5,0.9,24.2
					C14.8,112.8,23.6,133.5,64.5,132.7z"/>
			</g>
			<g>
				<path class="st0" d="M64.5,132.7c23.2-0.5,35.3-14.3,35-30.8C99,80.1,76.7,76.1,61.8,76.4c-19.2,0.4-28.4,8.1-31.2,12
					c-2.2,3.1,0.3,6.6,2.6,7.1c2.3,0.5,3.1-0.6,5.7-2.9c2.5-2.2,3.9-3.1,7.6-4.1c2-0.6,1.6,1,1,2.3c-1.4,3-2.2,9.5,1.5,15.7
					c3.2,5.4,9.1,8.2,15.5,7.8c6.6-0.3,10.1-3.7,12.6-7.2c2.8-3.8,4.9-12.6-0.1-16.2c-1.2-0.8-2.8-0.6-3.2,0.2
					c-0.3,0.5-0.3,0.9-0.1,1.4c0.1,0.2,0.1,0.4,0.2,0.6c0.5,2.1-1.3,3.5-3,3.6c-2.4,0.1-3.6-1.6-3.9-2.8c-0.3-1.3,0-3.5,1.8-4.9
					c1.9-1.4,4.9-2,8.4-1.3c20,4.1,15,34.6-13.5,34.5c-20.4-0.1-37.4-6.4-37.8-26.9c-0.1-6-0.1-18.8-1.4-25.7
					c-0.9-4.9-5.1-8.9-11.3-8.6c-0.8,0-1.5,0.7-1.3,1.5c0.3,1.4,1.2,6.6,1.4,9.9c0.2,5.2,0.6,9.5,0.9,24.2
					C14.8,112.8,23.6,133.5,64.5,132.7z"/>
			</g>
		</g>
	</g>
	<g>
		<path class="st0" d="M58.3,71.8c2.9-0.4,3.6-2,3.8-4.6c0.2-2.6,0.3-9.6,0.2-14c-0.1-4.4-1.8-28.3-1.9-33.2c-0.1-5-0.6-12-7.3-11.8
			c-6.7,0.2-6,8.3-5.9,11.1c0.2,2.8,2.5,25.8,2.8,30.1c0.4,4.3,2.2,18.4,3,20C53.8,70.6,55.3,72.1,58.3,71.8L58.3,71.8z"/>
		<path class="st0" d="M41.2,74.7c2.8-0.6,3.2-2.9,3-5.5c-0.2-2.6-1.2-9.2-2-13.5c-0.8-4.4-4.6-23.4-5.5-28.3
			c-0.9-4.9-2.5-11.8-9.1-10.5c-6.6,1.3-4.7,9.1-4,11.8c0.6,2.7,4.9,20.9,5.9,25.1c1,4.2,5.2,18.2,6.2,19.3
			C36.6,74.3,38.3,75.3,41.2,74.7L41.2,74.7z"/>
		<path class="st0" d="M73.5,73.2c2.6,0.4,3.6-1.5,4.2-3.7c0.7-2.3,1.8-8.1,2.5-12c0.7-3.9,3.7-25.9,4.5-30.3
			c0.7-4.4,1.5-10.7-4.5-11.7c-6-1-6.8,6.3-7.1,8.8c-0.3,2.5-2.7,23.9-3.1,27.7c-0.4,3.9-1.2,17-0.7,18.2
			C69.8,71.4,70.9,72.8,73.5,73.2L73.5,73.2z"/>
		<path class="st0" d="M88.7,77.7c2.2,0.7,3.4-0.8,4.3-2.7c0.9-1.9,2.8-6.9,4-10.3c1.2-3.4,4.5-16.5,5.8-20.3
			c1.3-3.8,2.9-9.3-2.3-11.1c-5.1-1.7-6.9,4.6-7.6,6.8c-0.6,2.2-3.3,14.8-4.3,18.2c-0.9,3.4-3.5,14.9-3.3,16.1
			C85.7,75.5,86.4,76.9,88.7,77.7L88.7,77.7z"/>
		<path class="st0" d="M58.3,71.8c2.9-0.4,3.6-2,3.8-4.6c0.2-2.6,0.2-13.3,0.2-17.8c-0.1-4.4-1.8-24.5-1.9-29.5
			c-0.1-5-0.6-12-7.3-11.8c-6.7,0.2-6,8.3-5.9,11.1c0.2,2.8,2.5,25.8,2.8,30.1c0.4,4.3,2.2,18.4,3,20C53.8,70.6,55.3,72.1,58.3,71.8
			L58.3,71.8z"/>
		<g>
			<g>
				<path class="st0" d="M64.5,132.7c23.2-0.5,35.3-14.3,35-30.8C99,80.1,76.7,76.1,61.8,76.4c-19.2,0.4-28.4,8.1-31.2,12
					c-2.2,3.1,0.3,6.6,2.6,7.1c2.3,0.5,3.1-0.6,5.7-2.9c2.5-2.2,3.9-3.1,7.6-4.1c2-0.6,1.6,1,1,2.3c-1.4,3-2.2,9.5,1.5,15.7
					c3.2,5.4,9.1,8.2,15.5,7.8c6.6-0.3,10.1-3.7,12.6-7.2c2.8-3.8,4.9-12.6-0.1-16.2c-1.2-0.8-2.8-0.6-3.2,0.2
					c-0.3,0.5-0.3,0.9-0.1,1.4c0.1,0.2,0.1,0.4,0.2,0.6c0.5,2.1-1.3,3.5-3,3.6c-2.4,0.1-3.6-1.6-3.9-2.8c-0.3-1.3,0-3.5,1.8-4.9
					c1.9-1.4,4.9-2,8.4-1.3c20,4.1,15,34.6-13.5,34.5c-20.4-0.1-37.4-6.4-37.8-26.9c-0.1-6-0.1-18.8-1.4-25.7
					c-0.9-4.9-5.1-8.9-11.3-8.6c-0.8,0-1.5,0.7-1.3,1.5c0.3,1.4,1.2,6.6,1.4,9.9c0.2,5.2,0.6,9.5,0.9,24.2
					C14.8,112.8,23.6,133.5,64.5,132.7z"/>
			</g>
			<g>
				<path class="st0" d="M64.5,132.7c23.2-0.5,35.3-14.3,35-30.8C99,80.1,76.7,76.1,61.8,76.4c-19.2,0.4-28.4,8.1-31.2,12
					c-2.2,3.1,0.3,6.6,2.6,7.1c2.3,0.5,3.1-0.6,5.7-2.9c2.5-2.2,3.9-3.1,7.6-4.1c2-0.6,1.6,1,1,2.3c-1.4,3-2.2,9.5,1.5,15.7
					c3.2,5.4,9.1,8.2,15.5,7.8c6.6-0.3,10.1-3.7,12.6-7.2c2.8-3.8,4.9-12.6-0.1-16.2c-1.2-0.8-2.8-0.6-3.2,0.2
					c-0.3,0.5-0.3,0.9-0.1,1.4c0.1,0.2,0.1,0.4,0.2,0.6c0.5,2.1-1.3,3.5-3,3.6c-2.4,0.1-3.6-1.6-3.9-2.8c-0.3-1.3,0-3.5,1.8-4.9
					c1.9-1.4,4.9-2,8.4-1.3c20,4.1,15,34.6-13.5,34.5c-20.4-0.1-37.4-6.4-37.8-26.9c-0.1-6-0.1-18.8-1.4-25.7
					c-0.9-4.9-5.1-8.9-11.3-8.6c-0.8,0-1.5,0.7-1.3,1.5c0.3,1.4,1.2,6.6,1.4,9.9c0.2,5.2,0.6,9.5,0.9,24.2
					C14.8,112.8,23.6,133.5,64.5,132.7z"/>
			</g>
		</g>
	</g>
</g>
<path class="st0" d="M171,67.3c-4.9,0-8.7-1.1-11.9-4.3l4.1-4.1c2.1,2.1,4.9,2.7,7.9,2.7c3.8,0,5.8-1.4,5.8-4c0-1.1-0.3-2.1-1-2.7
	c-0.6-0.6-1.4-0.9-2.9-1.1l-3.9-0.5c-2.8-0.4-4.8-1.3-6.3-2.7c-1.6-1.6-2.3-3.7-2.3-6.4c0-5.8,4.3-9.9,11.3-9.9
	c4.5,0,7.7,1.1,10.5,3.8l-4,4c-2.1-2-4.5-2.2-6.7-2.2c-3.4,0-5,1.9-5,4.1c0,0.8,0.3,1.7,1,2.3c0.6,0.6,1.7,1.1,3,1.3l3.8,0.5
	c3,0.4,4.8,1.2,6.2,2.5c1.7,1.6,2.5,4,2.5,6.9C183.1,63.7,177.9,67.3,171,67.3z"/>
<path class="st0" d="M190.2,54.8V35.6h13.1l-1,4.2H195V43h7.1v4.2H195v3.4h8.3v4.2H190.2z"/>
<path class="st0" d="M218.7,55c-2.2,0-3.9-0.8-5.3-2.2c-2-2-1.9-4.7-1.9-7.6c0-2.9-0.1-5.6,1.9-7.6c1.4-1.4,3.1-2.2,5.3-2.2
	c3.6,0,6.6,2,7.3,6.3h-4.8c-0.3-1.1-0.9-2.1-2.5-2.1c-0.9,0-1.5,0.4-1.9,0.8c-0.4,0.6-0.7,1.2-0.7,4.7c0,3.5,0.3,4.2,0.7,4.8
	c0.4,0.5,1,0.8,1.9,0.8c1.6,0,2.2-1,2.5-2h4.8C225.3,53,222.4,55,218.7,55z"/>
<path class="st0" d="M245.9,52.8c-1.4,1.4-3,2.2-5.4,2.2c-2.3,0-4-0.8-5.4-2.2c-2-2-1.9-4.7-1.9-7.6c0-2.9-0.1-5.6,1.9-7.6
	c1.4-1.4,3-2.2,5.4-2.2c2.3,0,4,0.8,5.4,2.2c2,2,1.9,4.7,1.9,7.6C247.9,48.1,248,50.8,245.9,52.8z M242.5,40.5
	c-0.3-0.5-1-0.8-1.9-0.8c-0.9,0-1.5,0.4-1.9,0.8c-0.4,0.6-0.7,1.2-0.7,4.7c0,3.5,0.3,4.1,0.7,4.7c0.4,0.5,1,0.9,1.9,0.9
	c0.9,0,1.5-0.4,1.9-0.9c0.4-0.6,0.7-1.2,0.7-4.7C243.2,41.7,242.9,41.1,242.5,40.5z"/>
<path class="st0" d="M267.4,54.8l-6.2-9.7v9.7h-4.7V35.6h4.1l6.2,9.7v-9.7h4.7v19.2H267.4z"/>
<path class="st0" d="M293.1,52.9c-1.3,1.3-3.2,1.9-5.2,1.9h-7.1V35.6h7.1c2,0,3.9,0.6,5.2,1.9c2.2,2.2,2,4.7,2,7.7
	C295.1,48.2,295.4,50.7,293.1,52.9z M289.9,40.9c-0.4-0.6-1.1-1.1-2.3-1.1h-2.1v10.8h2.1c1.2,0,1.8-0.4,2.3-1.1
	c0.4-0.5,0.5-1.1,0.5-4.3C290.4,42,290.3,41.4,289.9,40.9z"/>
<path class="st0" d="M134.7,121.2V35.6H149v72.8h32.9l-3.2,12.7H134.7z"/>
<path class="st0" d="M190.1,121.2V63h14.3v58.1H190.1z"/>
<path class="st0" d="M238.2,75.8V86h21.6v12.7h-21.6v22.5h-14.3V63h39.5l-3.2,12.7H238.2z"/>
<path class="st0" d="M275.4,121.2V63h39.5l-3.2,12.7h-22v9.7h21.6v12.7h-21.6v10.2h25.2v12.7H275.4z"/>
<g>
	<g>
		<path class="st0" d="M313.3,52.1c-0.3,0.6-0.7,1.1-1.1,1.6c-0.5,0.5-1,0.8-1.7,1.1c-0.6,0.3-1.3,0.4-2,0.4c-0.7,0-1.4-0.1-2-0.4
			c-0.6-0.3-1.2-0.6-1.7-1.1c-0.5-0.4-0.8-1-1.1-1.6c-0.3-0.6-0.4-1.3-0.4-2s0.1-1.3,0.4-2c0.3-0.6,0.6-1.1,1.1-1.6
			c0.5-0.4,1-0.8,1.7-1.1c0.6-0.3,1.3-0.4,2-0.4c0.7,0,1.4,0.1,2,0.4c0.6,0.3,1.2,0.6,1.7,1.1c0.5,0.5,0.8,1,1.1,1.6
			c0.3,0.6,0.4,1.3,0.4,2S313.6,51.5,313.3,52.1z M312.4,48.5c-0.2-0.5-0.5-0.9-0.9-1.3c-0.4-0.4-0.8-0.7-1.3-0.9
			c-0.5-0.2-1.1-0.3-1.6-0.3c-0.6,0-1.1,0.1-1.6,0.3c-0.5,0.2-1,0.5-1.3,0.9c-0.4,0.4-0.7,0.8-0.9,1.3c-0.2,0.5-0.3,1-0.3,1.6
			c0,0.6,0.1,1.1,0.3,1.6c0.2,0.5,0.5,0.9,0.9,1.3c0.4,0.4,0.8,0.7,1.3,0.9c0.5,0.2,1.1,0.3,1.6,0.3c0.6,0,1.1-0.1,1.6-0.3
			c0.5-0.2,1-0.5,1.3-0.9c0.4-0.4,0.7-0.8,0.9-1.3c0.2-0.5,0.3-1.1,0.3-1.6C312.7,49.6,312.6,49,312.4,48.5z M309.2,52.1
			c-0.2-0.3-0.4-0.6-0.5-0.8c-0.2-0.2-0.3-0.4-0.5-0.5c-0.1-0.1-0.1-0.1-0.2-0.1c-0.1,0-0.1,0-0.2-0.1v2.4h-1v-5.6h1.8
			c0.3,0,0.6,0,0.9,0.1c0.2,0.1,0.4,0.2,0.6,0.3c0.2,0.1,0.3,0.3,0.3,0.5s0.1,0.4,0.1,0.6c0,0.4-0.1,0.8-0.4,1.1
			c-0.3,0.3-0.6,0.4-1.1,0.4c0.1,0,0.1,0.1,0.2,0.2c0.1,0.1,0.1,0.2,0.2,0.3c0.1,0.1,0.2,0.2,0.2,0.3c0.1,0.1,0.2,0.2,0.3,0.4
			l0.9,1.3h-1.2L309.2,52.1z M309.2,48.3c-0.2-0.1-0.5-0.2-0.9-0.2h-0.5v1.8h0.5c0.3,0,0.5,0,0.6-0.1c0.1,0,0.3-0.1,0.4-0.2
			c0.2-0.2,0.3-0.4,0.3-0.7C309.5,48.7,309.4,48.5,309.2,48.3z"/>
	</g>
	<g>
		<path class="st0" d="M313.3,52.1c-0.3,0.6-0.7,1.1-1.1,1.6c-0.5,0.5-1,0.8-1.7,1.1c-0.6,0.3-1.3,0.4-2,0.4c-0.7,0-1.4-0.1-2-0.4
			c-0.6-0.3-1.2-0.6-1.7-1.1c-0.5-0.4-0.8-1-1.1-1.6c-0.3-0.6-0.4-1.3-0.4-2s0.1-1.3,0.4-2c0.3-0.6,0.6-1.1,1.1-1.6
			c0.5-0.4,1-0.8,1.7-1.1c0.6-0.3,1.3-0.4,2-0.4c0.7,0,1.4,0.1,2,0.4c0.6,0.3,1.2,0.6,1.7,1.1c0.5,0.5,0.8,1,1.1,1.6
			c0.3,0.6,0.4,1.3,0.4,2S313.6,51.5,313.3,52.1z M312.4,48.5c-0.2-0.5-0.5-0.9-0.9-1.3c-0.4-0.4-0.8-0.7-1.3-0.9
			c-0.5-0.2-1.1-0.3-1.6-0.3c-0.6,0-1.1,0.1-1.6,0.3c-0.5,0.2-1,0.5-1.3,0.9c-0.4,0.4-0.7,0.8-0.9,1.3c-0.2,0.5-0.3,1-0.3,1.6
			c0,0.6,0.1,1.1,0.3,1.6c0.2,0.5,0.5,0.9,0.9,1.3c0.4,0.4,0.8,0.7,1.3,0.9c0.5,0.2,1.1,0.3,1.6,0.3c0.6,0,1.1-0.1,1.6-0.3
			c0.5-0.2,1-0.5,1.3-0.9c0.4-0.4,0.7-0.8,0.9-1.3c0.2-0.5,0.3-1.1,0.3-1.6C312.7,49.6,312.6,49,312.4,48.5z M309.2,52.1
			c-0.2-0.3-0.4-0.6-0.5-0.8c-0.2-0.2-0.3-0.4-0.5-0.5c-0.1-0.1-0.1-0.1-0.2-0.1c-0.1,0-0.1,0-0.2-0.1v2.4h-1v-5.6h1.8
			c0.3,0,0.6,0,0.9,0.1c0.2,0.1,0.4,0.2,0.6,0.3c0.2,0.1,0.3,0.3,0.3,0.5s0.1,0.4,0.1,0.6c0,0.4-0.1,0.8-0.4,1.1
			c-0.3,0.3-0.6,0.4-1.1,0.4c0.1,0,0.1,0.1,0.2,0.2c0.1,0.1,0.1,0.2,0.2,0.3c0.1,0.1,0.2,0.2,0.2,0.3c0.1,0.1,0.2,0.2,0.3,0.4
			l0.9,1.3h-1.2L309.2,52.1z M309.2,48.3c-0.2-0.1-0.5-0.2-0.9-0.2h-0.5v1.8h0.5c0.3,0,0.5,0,0.6-0.1c0.1,0,0.3-0.1,0.4-0.2
			c0.2-0.2,0.3-0.4,0.3-0.7C309.5,48.7,309.4,48.5,309.2,48.3z"/>
	</g>
</g>
<g>
	<path class="st1" d="M18.9,151.5L13,142h3.2l4.2,7l4.1-7h3.1l-5.9,9.5v6.2h-2.8V151.5z"/>
	<path class="st1" d="M31.9,158c-0.9,0-1.7-0.2-2.4-0.5c-0.7-0.3-1.3-0.7-1.8-1.2c-0.5-0.5-0.9-1.2-1.1-1.9
		c-0.3-0.7-0.4-1.5-0.4-2.4c0-0.9,0.1-1.7,0.4-2.4c0.3-0.7,0.6-1.4,1.1-1.9c0.5-0.5,1.1-0.9,1.8-1.2c0.7-0.3,1.5-0.5,2.4-0.5
		c0.9,0,1.7,0.2,2.4,0.5c0.7,0.3,1.3,0.7,1.8,1.2c0.5,0.5,0.9,1.2,1.1,1.9c0.3,0.7,0.4,1.5,0.4,2.4c0,0.9-0.1,1.7-0.4,2.4
		c-0.3,0.7-0.6,1.4-1.1,1.9c-0.5,0.5-1.1,0.9-1.8,1.2C33.6,157.9,32.8,158,31.9,158z M31.9,156c0.6,0,1-0.1,1.5-0.4
		c0.4-0.2,0.7-0.5,1-0.9c0.3-0.4,0.5-0.8,0.6-1.3c0.1-0.5,0.2-1,0.2-1.5c0-0.5-0.1-1-0.2-1.5c-0.1-0.5-0.3-0.9-0.6-1.3
		c-0.3-0.4-0.6-0.7-1-0.9s-0.9-0.4-1.5-0.4c-0.6,0-1,0.1-1.5,0.4s-0.7,0.5-1,0.9c-0.3,0.4-0.5,0.8-0.6,1.3c-0.1,0.5-0.2,1-0.2,1.5
		c0,0.5,0.1,1,0.2,1.5c0.1,0.5,0.3,0.9,0.6,1.3c0.3,0.4,0.6,0.7,1,0.9C30.8,155.9,31.3,156,31.9,156z"/>
	<path class="st1" d="M49.7,157.7h-2.5v-1.6h0c-0.3,0.6-0.8,1-1.4,1.4S44.6,158,44,158c-1.5,0-2.6-0.4-3.2-1.1s-1-1.9-1-3.4v-7.2
		h2.5v7c0,1,0.2,1.7,0.6,2.1c0.4,0.4,0.9,0.6,1.6,0.6c0.5,0,1-0.1,1.3-0.2c0.4-0.2,0.6-0.4,0.9-0.6c0.2-0.3,0.4-0.6,0.5-1
		c0.1-0.4,0.1-0.8,0.1-1.2v-6.6h2.5V157.7z"/>
	<path class="st1" d="M52.3,146.3h2.4v2.2h0c0.1-0.3,0.2-0.6,0.4-0.9c0.2-0.3,0.5-0.6,0.8-0.8c0.3-0.2,0.6-0.4,1-0.6
		s0.7-0.2,1.1-0.2c0.3,0,0.5,0,0.6,0s0.2,0,0.3,0v2.4c-0.2,0-0.4-0.1-0.5-0.1c-0.2,0-0.4,0-0.5,0c-0.4,0-0.8,0.1-1.2,0.3
		s-0.7,0.4-1,0.7c-0.3,0.3-0.5,0.7-0.7,1.2s-0.2,1-0.2,1.7v5.4h-2.5V146.3z"/>
	<path class="st1" d="M65,142h2.8l2.8,12h0l3.2-12h2.8l3.1,12h0l2.9-12h2.8l-4.3,15.7h-2.8l-3.1-12h0l-3.2,12h-2.8L65,142z"/>
	<path class="st1" d="M91.8,158c-0.9,0-1.7-0.2-2.4-0.5c-0.7-0.3-1.3-0.7-1.8-1.2c-0.5-0.5-0.9-1.2-1.1-1.9
		c-0.3-0.7-0.4-1.5-0.4-2.4c0-0.9,0.1-1.7,0.4-2.4c0.3-0.7,0.6-1.4,1.1-1.9c0.5-0.5,1.1-0.9,1.8-1.2c0.7-0.3,1.5-0.5,2.4-0.5
		c0.9,0,1.7,0.2,2.4,0.5c0.7,0.3,1.3,0.7,1.8,1.2c0.5,0.5,0.9,1.2,1.1,1.9c0.3,0.7,0.4,1.5,0.4,2.4c0,0.9-0.1,1.7-0.4,2.4
		c-0.3,0.7-0.6,1.4-1.1,1.9c-0.5,0.5-1.1,0.9-1.8,1.2C93.5,157.9,92.7,158,91.8,158z M91.8,156c0.6,0,1-0.1,1.5-0.4
		c0.4-0.2,0.7-0.5,1-0.9c0.3-0.4,0.5-0.8,0.6-1.3c0.1-0.5,0.2-1,0.2-1.5c0-0.5-0.1-1-0.2-1.5c-0.1-0.5-0.3-0.9-0.6-1.3
		c-0.3-0.4-0.6-0.7-1-0.9s-0.9-0.4-1.5-0.4c-0.6,0-1,0.1-1.5,0.4s-0.7,0.5-1,0.9c-0.3,0.4-0.5,0.8-0.6,1.3c-0.1,0.5-0.2,1-0.2,1.5
		c0,0.5,0.1,1,0.2,1.5c0.1,0.5,0.3,0.9,0.6,1.3c0.3,0.4,0.6,0.7,1,0.9C90.7,155.9,91.2,156,91.8,156z"/>
	<path class="st1" d="M99.6,146.3h2.4v2.2h0c0.1-0.3,0.2-0.6,0.4-0.9c0.2-0.3,0.5-0.6,0.8-0.8c0.3-0.2,0.6-0.4,1-0.6
		s0.7-0.2,1.1-0.2c0.3,0,0.5,0,0.6,0s0.2,0,0.3,0v2.4c-0.2,0-0.4-0.1-0.5-0.1c-0.2,0-0.4,0-0.5,0c-0.4,0-0.8,0.1-1.2,0.3
		s-0.7,0.4-1,0.7c-0.3,0.3-0.5,0.7-0.7,1.2s-0.2,1-0.2,1.7v5.4h-2.5V146.3z"/>
	<path class="st1" d="M107.4,142h2.5v15.7h-2.5V142z"/>
	<path class="st1" d="M123.4,157.7H121v-1.5h0c-0.3,0.7-0.8,1.1-1.5,1.4c-0.6,0.3-1.3,0.4-2,0.4c-0.9,0-1.7-0.2-2.3-0.5
		s-1.2-0.7-1.7-1.3c-0.4-0.5-0.8-1.2-1-1.9c-0.2-0.7-0.3-1.5-0.3-2.4c0-1,0.1-1.9,0.4-2.7c0.3-0.7,0.6-1.4,1.1-1.8
		c0.5-0.5,1-0.8,1.6-1.1c0.6-0.2,1.2-0.3,1.8-0.3c0.4,0,0.7,0,1.1,0.1s0.7,0.2,1.1,0.3s0.6,0.3,0.9,0.6s0.5,0.5,0.7,0.8h0V142h2.5
		V157.7z M114.6,152.1c0,0.5,0.1,1,0.2,1.4s0.3,0.9,0.6,1.3c0.3,0.4,0.6,0.7,1,0.9s0.9,0.3,1.4,0.3c0.6,0,1-0.1,1.4-0.4
		c0.4-0.2,0.7-0.5,1-0.9c0.3-0.4,0.4-0.8,0.6-1.3c0.1-0.5,0.2-1,0.2-1.5c0-1.3-0.3-2.2-0.8-2.9c-0.6-0.7-1.3-1.1-2.3-1.1
		c-0.6,0-1.1,0.1-1.5,0.4s-0.7,0.6-1,0.9c-0.3,0.4-0.4,0.8-0.6,1.3C114.7,151.1,114.6,151.6,114.6,152.1z"/>
	<path class="st1" d="M126.3,154.7h3.1v3h-3.1V154.7z"/>
	<path class="st1" d="M142.8,151.5l-5.9-9.5h3.2l4.2,7l4.1-7h3.1l-5.9,9.5v6.2h-2.8V151.5z"/>
	<path class="st1" d="M155.8,158c-0.9,0-1.7-0.2-2.4-0.5c-0.7-0.3-1.3-0.7-1.8-1.2c-0.5-0.5-0.9-1.2-1.1-1.9
		c-0.3-0.7-0.4-1.5-0.4-2.4c0-0.9,0.1-1.7,0.4-2.4c0.3-0.7,0.6-1.4,1.1-1.9c0.5-0.5,1.1-0.9,1.8-1.2c0.7-0.3,1.5-0.5,2.4-0.5
		c0.9,0,1.7,0.2,2.4,0.5c0.7,0.3,1.3,0.7,1.8,1.2c0.5,0.5,0.9,1.2,1.1,1.9c0.3,0.7,0.4,1.5,0.4,2.4c0,0.9-0.1,1.7-0.4,2.4
		c-0.3,0.7-0.6,1.4-1.1,1.9c-0.5,0.5-1.1,0.9-1.8,1.2C157.5,157.9,156.7,158,155.8,158z M155.8,156c0.6,0,1-0.1,1.5-0.4
		c0.4-0.2,0.7-0.5,1-0.9c0.3-0.4,0.5-0.8,0.6-1.3c0.1-0.5,0.2-1,0.2-1.5c0-0.5-0.1-1-0.2-1.5c-0.1-0.5-0.3-0.9-0.6-1.3
		c-0.3-0.4-0.6-0.7-1-0.9s-0.9-0.4-1.5-0.4c-0.6,0-1,0.1-1.5,0.4s-0.7,0.5-1,0.9c-0.3,0.4-0.5,0.8-0.6,1.3c-0.1,0.5-0.2,1-0.2,1.5
		c0,0.5,0.1,1,0.2,1.5c0.1,0.5,0.3,0.9,0.6,1.3c0.3,0.4,0.6,0.7,1,0.9C154.7,155.9,155.2,156,155.8,156z"/>
	<path class="st1" d="M173.6,157.7h-2.5v-1.6h0c-0.3,0.6-0.8,1-1.4,1.4s-1.2,0.5-1.9,0.5c-1.5,0-2.6-0.4-3.2-1.1
		c-0.7-0.7-1-1.9-1-3.4v-7.2h2.5v7c0,1,0.2,1.7,0.6,2.1c0.4,0.4,0.9,0.6,1.6,0.6c0.5,0,1-0.1,1.3-0.2c0.4-0.2,0.6-0.4,0.9-0.6
		c0.2-0.3,0.4-0.6,0.5-1c0.1-0.4,0.1-0.8,0.1-1.2v-6.6h2.5V157.7z"/>
	<path class="st1" d="M176.2,146.3h2.4v2.2h0c0.1-0.3,0.2-0.6,0.4-0.9c0.2-0.3,0.5-0.6,0.8-0.8s0.6-0.4,1-0.6
		c0.4-0.1,0.7-0.2,1.1-0.2c0.3,0,0.5,0,0.6,0c0.1,0,0.2,0,0.3,0v2.4c-0.2,0-0.4-0.1-0.5-0.1c-0.2,0-0.4,0-0.5,0
		c-0.4,0-0.8,0.1-1.2,0.3s-0.7,0.4-1,0.7c-0.3,0.3-0.5,0.7-0.7,1.2c-0.2,0.5-0.2,1-0.2,1.7v5.4h-2.5V146.3z"/>
	<path class="st1" d="M190.4,142h2.8v15.7h-2.8V142z"/>
	<path class="st1" d="M196.2,146.3h2.4v1.6h0.1c0.2-0.3,0.4-0.5,0.6-0.8c0.2-0.2,0.5-0.4,0.7-0.6c0.3-0.2,0.6-0.3,0.9-0.4
		c0.4-0.1,0.8-0.1,1.2-0.1c0.7,0,1.3,0.2,1.9,0.5c0.6,0.3,1,0.8,1.3,1.4c0.4-0.6,0.9-1,1.5-1.4c0.6-0.3,1.3-0.5,2.1-0.5
		c1.2,0,2.1,0.3,2.8,0.9c0.7,0.6,1,1.6,1,2.9v7.9h-2.5v-6.6c0-0.5,0-0.9,0-1.2s-0.1-0.7-0.3-1c-0.1-0.3-0.3-0.5-0.6-0.6
		c-0.3-0.1-0.7-0.2-1.1-0.2c-0.9,0-1.5,0.3-1.8,0.8c-0.4,0.5-0.6,1.3-0.6,2.2v6.7h-2.5v-7.3c0-0.8-0.1-1.4-0.4-1.8s-0.8-0.6-1.6-0.6
		c-0.3,0-0.6,0.1-0.9,0.2s-0.6,0.3-0.8,0.6c-0.2,0.2-0.4,0.6-0.5,0.9c-0.1,0.4-0.2,0.8-0.2,1.3v6.8h-2.5V146.3z"/>
	<path class="st1" d="M224.9,155.2c0,0.3,0,0.5,0.1,0.7s0.2,0.2,0.5,0.2c0.1,0,0.2,0,0.3,0s0.2,0,0.4,0v1.7c-0.1,0-0.2,0.1-0.3,0.1
		c-0.1,0-0.3,0.1-0.4,0.1s-0.3,0.1-0.4,0.1s-0.3,0-0.4,0c-0.5,0-0.9-0.1-1.3-0.3c-0.3-0.2-0.6-0.6-0.7-1.1c-0.5,0.5-1.1,0.8-1.8,1.1
		c-0.7,0.2-1.4,0.3-2.1,0.3c-0.5,0-1-0.1-1.5-0.2c-0.5-0.1-0.9-0.3-1.2-0.6s-0.6-0.6-0.9-1c-0.2-0.4-0.3-0.9-0.3-1.5
		c0-0.7,0.1-1.3,0.4-1.7c0.3-0.4,0.6-0.8,1-1c0.4-0.2,0.9-0.4,1.4-0.5c0.5-0.1,1-0.2,1.6-0.3c0.5-0.1,0.9-0.2,1.3-0.2
		c0.4,0,0.8-0.1,1.1-0.2s0.6-0.2,0.7-0.4s0.3-0.5,0.3-0.8c0-0.3-0.1-0.6-0.2-0.8c-0.2-0.2-0.3-0.4-0.6-0.5c-0.2-0.1-0.5-0.2-0.8-0.2
		c-0.3,0-0.5-0.1-0.8-0.1c-0.7,0-1.3,0.1-1.7,0.4c-0.5,0.3-0.7,0.7-0.8,1.4h-2.5c0-0.7,0.2-1.3,0.5-1.8c0.3-0.5,0.7-0.9,1.2-1.2
		c0.5-0.3,1-0.5,1.6-0.6c0.6-0.1,1.2-0.2,1.8-0.2c0.6,0,1.1,0.1,1.7,0.2c0.5,0.1,1,0.3,1.5,0.6c0.4,0.3,0.8,0.6,1,1
		c0.3,0.4,0.4,0.9,0.4,1.5V155.2z M222.4,152c-0.4,0.2-0.9,0.4-1.4,0.5c-0.6,0.1-1.1,0.1-1.7,0.2c-0.3,0-0.5,0.1-0.8,0.2
		c-0.2,0.1-0.5,0.2-0.7,0.3s-0.3,0.3-0.5,0.5c-0.1,0.2-0.2,0.5-0.2,0.8c0,0.3,0.1,0.5,0.2,0.7c0.2,0.2,0.4,0.3,0.6,0.5
		c0.2,0.1,0.5,0.2,0.7,0.2s0.5,0.1,0.7,0.1c0.3,0,0.6,0,0.9-0.1c0.3-0.1,0.6-0.2,0.9-0.4s0.5-0.4,0.7-0.7s0.3-0.6,0.3-1V152z"/>
	<path class="st1" d="M238.1,157.1c0,1.7-0.5,3-1.4,3.8c-1,0.8-2.3,1.3-4.1,1.3c-0.6,0-1.1-0.1-1.7-0.2c-0.6-0.1-1.1-0.3-1.6-0.6
		c-0.5-0.3-0.9-0.6-1.2-1.1c-0.3-0.5-0.5-1-0.6-1.7h2.5c0.1,0.4,0.2,0.6,0.4,0.9s0.4,0.4,0.6,0.5s0.5,0.2,0.8,0.2
		c0.3,0,0.6,0.1,0.9,0.1c1,0,1.8-0.2,2.2-0.7c0.5-0.5,0.7-1.2,0.7-2.2v-1.7h0c-0.4,0.6-0.8,1.1-1.4,1.5c-0.6,0.4-1.3,0.5-2,0.5
		c-0.9,0-1.7-0.2-2.3-0.5c-0.6-0.3-1.2-0.7-1.6-1.3c-0.4-0.5-0.7-1.2-0.9-1.9s-0.3-1.5-0.3-2.3c0-0.8,0.1-1.5,0.4-2.2s0.6-1.3,1-1.8
		c0.4-0.5,1-0.9,1.6-1.2c0.6-0.3,1.4-0.5,2.2-0.5c0.7,0,1.4,0.2,2,0.5c0.6,0.3,1.1,0.8,1.4,1.4h0v-1.6h2.5V157.1z M232.5,155.7
		c0.6,0,1-0.1,1.4-0.3c0.4-0.2,0.7-0.5,0.9-0.9s0.4-0.8,0.5-1.3s0.2-1,0.2-1.4c0-0.5-0.1-1-0.2-1.4c-0.1-0.5-0.3-0.9-0.5-1.2
		c-0.2-0.4-0.6-0.6-0.9-0.8c-0.4-0.2-0.9-0.3-1.4-0.3c-0.6,0-1,0.1-1.4,0.4c-0.4,0.2-0.7,0.5-0.9,0.9c-0.2,0.4-0.4,0.8-0.5,1.3
		s-0.2,1-0.2,1.4c0,0.5,0.1,0.9,0.2,1.4s0.3,0.8,0.5,1.2s0.5,0.6,0.9,0.9C231.6,155.6,232,155.7,232.5,155.7z"/>
	<path class="st1" d="M240.7,142h2.5v2.4h-2.5V142z M240.7,146.3h2.5v11.4h-2.5V146.3z"/>
	<path class="st1" d="M245.9,146.3h2.4v1.7l0,0c0.4-0.6,0.9-1.1,1.5-1.5c0.6-0.4,1.3-0.5,2-0.5c1.2,0,2.2,0.3,2.9,1
		c0.7,0.6,1.1,1.6,1.1,2.9v7.8h-2.5v-7.2c0-0.9-0.2-1.5-0.6-1.9c-0.4-0.4-0.9-0.6-1.6-0.6c-0.4,0-0.8,0.1-1.1,0.2
		c-0.3,0.2-0.6,0.4-0.9,0.6c-0.2,0.3-0.4,0.6-0.5,1c-0.1,0.4-0.2,0.8-0.2,1.2v6.7h-2.5V146.3z"/>
	<path class="st1" d="M268.1,155.2c0,0.3,0,0.5,0.1,0.7s0.2,0.2,0.5,0.2c0.1,0,0.2,0,0.3,0s0.2,0,0.4,0v1.7c-0.1,0-0.2,0.1-0.3,0.1
		c-0.1,0-0.3,0.1-0.4,0.1s-0.3,0.1-0.4,0.1s-0.3,0-0.4,0c-0.5,0-0.9-0.1-1.3-0.3c-0.3-0.2-0.6-0.6-0.7-1.1c-0.5,0.5-1.1,0.8-1.8,1.1
		c-0.7,0.2-1.4,0.3-2.1,0.3c-0.5,0-1-0.1-1.5-0.2c-0.5-0.1-0.9-0.3-1.2-0.6s-0.6-0.6-0.9-1c-0.2-0.4-0.3-0.9-0.3-1.5
		c0-0.7,0.1-1.3,0.4-1.7c0.3-0.4,0.6-0.8,1-1c0.4-0.2,0.9-0.4,1.4-0.5c0.5-0.1,1-0.2,1.6-0.3c0.5-0.1,0.9-0.2,1.3-0.2
		c0.4,0,0.8-0.1,1.1-0.2s0.6-0.2,0.7-0.4s0.3-0.5,0.3-0.8c0-0.3-0.1-0.6-0.2-0.8c-0.2-0.2-0.3-0.4-0.6-0.5c-0.2-0.1-0.5-0.2-0.8-0.2
		c-0.3,0-0.5-0.1-0.8-0.1c-0.7,0-1.3,0.1-1.7,0.4c-0.5,0.3-0.7,0.7-0.8,1.4h-2.5c0-0.7,0.2-1.3,0.5-1.8c0.3-0.5,0.7-0.9,1.2-1.2
		c0.5-0.3,1-0.5,1.6-0.6c0.6-0.1,1.2-0.2,1.8-0.2c0.6,0,1.1,0.1,1.7,0.2c0.5,0.1,1,0.3,1.5,0.6c0.4,0.3,0.8,0.6,1,1
		c0.3,0.4,0.4,0.9,0.4,1.5V155.2z M265.6,152c-0.4,0.2-0.9,0.4-1.4,0.5c-0.6,0.1-1.1,0.1-1.7,0.2c-0.3,0-0.5,0.1-0.8,0.2
		c-0.2,0.1-0.5,0.2-0.7,0.3s-0.3,0.3-0.5,0.5c-0.1,0.2-0.2,0.5-0.2,0.8c0,0.3,0.1,0.5,0.2,0.7c0.2,0.2,0.4,0.3,0.6,0.5
		c0.2,0.1,0.5,0.2,0.7,0.2s0.5,0.1,0.7,0.1c0.3,0,0.6,0,0.9-0.1c0.3-0.1,0.6-0.2,0.9-0.4s0.5-0.4,0.7-0.7s0.3-0.6,0.3-1V152z"/>
	<path class="st1" d="M269.6,146.3h1.9v-3.4h2.5v3.4h2.3v1.9H274v6.1c0,0.3,0,0.5,0,0.7c0,0.2,0.1,0.4,0.2,0.5
		c0.1,0.1,0.2,0.2,0.4,0.3c0.2,0.1,0.4,0.1,0.7,0.1c0.2,0,0.4,0,0.5,0c0.2,0,0.4,0,0.5-0.1v1.9c-0.3,0-0.5,0.1-0.8,0.1
		c-0.3,0-0.5,0-0.8,0c-0.7,0-1.2-0.1-1.6-0.2c-0.4-0.1-0.7-0.3-0.9-0.5s-0.4-0.5-0.5-0.9c-0.1-0.4-0.1-0.8-0.1-1.3v-6.7h-1.9V146.3z
		"/>
	<path class="st1" d="M278.2,142h2.5v2.4h-2.5V142z M278.2,146.3h2.5v11.4h-2.5V146.3z"/>
	<path class="st1" d="M288.6,158c-0.9,0-1.7-0.2-2.4-0.5c-0.7-0.3-1.3-0.7-1.8-1.2c-0.5-0.5-0.9-1.2-1.1-1.9
		c-0.3-0.7-0.4-1.5-0.4-2.4c0-0.9,0.1-1.7,0.4-2.4s0.6-1.4,1.1-1.9c0.5-0.5,1.1-0.9,1.8-1.2c0.7-0.3,1.5-0.5,2.4-0.5
		c0.9,0,1.7,0.2,2.4,0.5c0.7,0.3,1.3,0.7,1.8,1.2c0.5,0.5,0.9,1.2,1.1,1.9s0.4,1.5,0.4,2.4c0,0.9-0.1,1.7-0.4,2.4
		c-0.3,0.7-0.6,1.4-1.1,1.9c-0.5,0.5-1.1,0.9-1.8,1.2C290.4,157.9,289.5,158,288.6,158z M288.6,156c0.6,0,1-0.1,1.5-0.4
		c0.4-0.2,0.7-0.5,1-0.9c0.3-0.4,0.5-0.8,0.6-1.3c0.1-0.5,0.2-1,0.2-1.5c0-0.5-0.1-1-0.2-1.5c-0.1-0.5-0.3-0.9-0.6-1.3
		c-0.3-0.4-0.6-0.7-1-0.9c-0.4-0.2-0.9-0.4-1.5-0.4c-0.6,0-1,0.1-1.5,0.4c-0.4,0.2-0.7,0.5-1,0.9c-0.3,0.4-0.5,0.8-0.6,1.3
		c-0.1,0.5-0.2,1-0.2,1.5c0,0.5,0.1,1,0.2,1.5c0.1,0.5,0.3,0.9,0.6,1.3c0.3,0.4,0.6,0.7,1,0.9C287.6,155.9,288.1,156,288.6,156z"/>
	<path class="st1" d="M296.5,146.3h2.4v1.7l0,0c0.4-0.6,0.9-1.1,1.5-1.5c0.6-0.4,1.3-0.5,2-0.5c1.2,0,2.2,0.3,2.9,1
		c0.7,0.6,1.1,1.6,1.1,2.9v7.8h-2.5v-7.2c0-0.9-0.2-1.5-0.6-1.9c-0.4-0.4-0.9-0.6-1.6-0.6c-0.4,0-0.8,0.1-1.1,0.2
		c-0.3,0.2-0.6,0.4-0.9,0.6c-0.2,0.3-0.4,0.6-0.5,1c-0.1,0.4-0.2,0.8-0.2,1.2v6.7h-2.5V146.3z"/>
	<path class="st1" d="M309.3,154.7h3.1v3h-3.1V154.7z"/>
</g>
</svg>
